<svg width="60" height="43" viewBox="0 0 60 43" fill="none" xmlns="http://www.w3.org/2000/svg">
<path fill-rule="evenodd" clip-rule="evenodd" d="M29.9363 0L12.832 25.8617L29.9363 32.9771L47.0406 25.8617L29.9363 0ZM30.2784 7.52589L19.6738 23.3302L25.1471 21.483L30.2784 11.8362L34.9308 21.483L40.3357 23.3302L30.2784 7.52589ZM22.2736 27.23L24.805 23.6723L29.389 22.8513L29.6626 19.9778L32.4677 23.6723L34.6571 22.4408L37.7359 27.23L30.21 30.4456L22.2736 27.23Z" fill="white"/>
<path d="M55.9673 42.8448C55.9092 42.8448 55.8801 42.8157 55.8801 42.7576V37.7431C55.8801 37.6851 55.9092 37.656 55.9673 37.656H56.5931C56.6512 37.656 56.6802 37.6851 56.6802 37.7431V39.8345H59.0726V37.7431C59.0726 37.6851 59.1016 37.656 59.1597 37.656H59.7935C59.8463 37.656 59.8727 37.6851 59.8727 37.7431V42.7576C59.8727 42.8157 59.8463 42.8448 59.7935 42.8448H59.1597C59.1016 42.8448 59.0726 42.8157 59.0726 42.7576V40.5316H56.6802V42.7576C56.6802 42.8157 56.6512 42.8448 56.5931 42.8448H55.9673Z" fill="white"/>
<path d="M50.6069 42.9398C49.952 42.9398 49.4529 42.7788 49.1096 42.4566C48.7664 42.1292 48.5947 41.6565 48.5947 41.0386V39.4701C48.5947 38.8469 48.7664 38.3743 49.1096 38.0521C49.4582 37.7247 49.9599 37.561 50.6148 37.561C51.0426 37.561 51.4149 37.6323 51.7317 37.7749C52.0486 37.9175 52.2836 38.1234 52.4368 38.3928C52.5952 38.6568 52.648 38.9737 52.5952 39.3434C52.5899 39.3751 52.582 39.4015 52.5714 39.4226C52.5609 39.4437 52.5398 39.4543 52.5081 39.4543H51.8743C51.8162 39.4543 51.7898 39.4252 51.7951 39.3671C51.811 39.0186 51.7185 38.7466 51.5179 38.5512C51.3172 38.3558 51.0188 38.2581 50.6227 38.2581C50.2266 38.2581 49.9229 38.3611 49.7117 38.567C49.5004 38.773 49.3948 39.074 49.3948 39.4701V41.0307C49.3948 41.4268 49.5004 41.7278 49.7117 41.9338C49.9229 42.1397 50.2266 42.2427 50.6227 42.2427C51.0241 42.2427 51.3277 42.145 51.5337 41.9496C51.7449 41.7489 51.8321 41.477 51.7951 41.1337C51.7898 41.0756 51.8162 41.0465 51.8743 41.0465H52.5002C52.553 41.0465 52.5847 41.0835 52.5952 41.1575C52.6269 41.5166 52.5635 41.8308 52.4051 42.1001C52.2519 42.3642 52.0196 42.5702 51.708 42.718C51.3964 42.8659 51.0293 42.9398 50.6069 42.9398Z" fill="white"/>
<path d="M43.6234 42.8448C43.5653 42.8448 43.5363 42.8157 43.5363 42.7576V38.369H42.1421C42.084 38.369 42.0549 38.3399 42.0549 38.2818V37.7431C42.0549 37.6851 42.084 37.656 42.1421 37.656H45.7385C45.7966 37.656 45.8257 37.6851 45.8257 37.7431V38.2818C45.8257 38.3399 45.7966 38.369 45.7385 38.369H44.3364V42.7576C44.3364 42.8157 44.3074 42.8448 44.2493 42.8448H43.6234Z" fill="white"/>
<path d="M35.6261 42.8448C35.5627 42.8448 35.539 42.8131 35.5548 42.7497L37.2897 37.7273C37.3055 37.6798 37.3372 37.656 37.3847 37.656H38.2324C38.2852 37.656 38.3195 37.6798 38.3353 37.7273L40.086 42.7497C40.0966 42.7761 40.094 42.7999 40.0781 42.821C40.0676 42.8368 40.0464 42.8448 40.0148 42.8448H39.3335C39.2807 42.8448 39.2463 42.821 39.2305 42.7735L38.1215 39.3513C38.0686 39.1875 38.0158 39.0238 37.963 38.8601C37.9102 38.6911 37.8574 38.5248 37.8046 38.361H37.7887C37.7412 38.5248 37.691 38.6885 37.6382 38.8522C37.5854 39.0106 37.5326 39.1717 37.4798 39.3354L36.3866 42.7735C36.3707 42.821 36.3364 42.8448 36.2836 42.8448H35.6261ZM36.6005 41.6882L36.7748 41.0148H38.8265L39.0087 41.6882H36.6005Z" fill="white"/>
<path d="M28.535 42.8448C28.4874 42.8448 28.4584 42.821 28.4478 42.7735L27.014 37.7511C26.9981 37.6877 27.0245 37.656 27.0932 37.656H27.7269C27.7797 37.656 27.8114 37.6798 27.822 37.7273L28.6696 40.8009C28.7066 40.9277 28.7409 41.0597 28.7726 41.197C28.8043 41.3343 28.836 41.4717 28.8677 41.609C28.8994 41.741 28.931 41.8704 28.9627 41.9971H28.9707C29.0235 41.8123 29.0763 41.6301 29.1291 41.4505C29.1872 41.2657 29.2453 41.0835 29.3034 40.9039L29.9371 38.8205L29.6519 37.8382C29.6414 37.8118 29.644 37.7907 29.6598 37.7748C29.6757 37.7537 29.6968 37.7431 29.7232 37.7431H30.3649C30.4177 37.7431 30.4494 37.7696 30.4599 37.8224L31.3076 40.9515C31.3604 41.1257 31.4079 41.3 31.4502 41.4743C31.4924 41.6486 31.5373 41.8228 31.5848 41.9971H31.5928C31.6192 41.8757 31.6482 41.7463 31.6799 41.609C31.7116 41.4717 31.7433 41.3343 31.775 41.197C31.8066 41.0597 31.8383 40.9277 31.87 40.8009L32.686 37.7273C32.6965 37.6798 32.7282 37.656 32.781 37.656H33.4385C33.5072 37.656 33.5309 37.6877 33.5098 37.7511L32.1314 42.7735C32.1209 42.821 32.0892 42.8448 32.0364 42.8448H31.1967C31.1439 42.8448 31.1122 42.821 31.1016 42.7735L30.5946 41.0148C30.5418 40.8353 30.4916 40.6584 30.4441 40.4841C30.3966 40.3045 30.349 40.125 30.3015 39.9454H30.2857C30.2381 40.1197 30.188 40.2939 30.1351 40.4682C30.0876 40.6425 30.0348 40.8194 29.9767 40.999L29.446 42.7735C29.4354 42.7999 29.4222 42.8183 29.4063 42.8289C29.3958 42.8395 29.3773 42.8448 29.3509 42.8448H28.535Z" fill="white"/>
<path d="M17.4194 42.8448C17.3613 42.8448 17.3323 42.8157 17.3323 42.7576V37.7431C17.3323 37.6851 17.3613 37.656 17.4194 37.656H20.3346C20.3874 37.656 20.4138 37.6851 20.4138 37.7431V38.2818C20.4138 38.3399 20.3874 38.369 20.3346 38.369H18.1324V39.8741H20.1445C20.1973 39.8741 20.2237 39.9005 20.2237 39.9533V40.4682C20.2237 40.5263 20.1973 40.5554 20.1445 40.5554H18.1324V42.1318H20.3346C20.3874 42.1318 20.4138 42.1608 20.4138 42.2189V42.7576C20.4138 42.8157 20.3874 42.8448 20.3346 42.8448H17.4194Z" fill="white"/>
<path d="M10.4609 42.8448C10.4028 42.8448 10.3738 42.8157 10.3738 42.7576V37.7431C10.3738 37.6851 10.4028 37.656 10.4609 37.656H12.0453C12.7001 37.656 13.1807 37.7801 13.487 38.0283C13.7933 38.2765 13.9465 38.6436 13.9465 39.1295C13.9465 39.5044 13.8594 39.8186 13.6851 40.0721C13.5108 40.3204 13.2573 40.492 12.9246 40.5871V40.595L14.2317 42.7418C14.2475 42.7682 14.2502 42.7919 14.2396 42.8131C14.229 42.8342 14.2053 42.8448 14.1683 42.8448H13.4395C13.392 42.8448 13.3576 42.8263 13.3365 42.7893L12.0849 40.698H11.1739V42.7576C11.1739 42.8157 11.1448 42.8448 11.0867 42.8448H10.4609ZM11.1739 40.0642H11.9898C12.3965 40.0642 12.6896 39.9929 12.8691 39.8503C13.054 39.7077 13.1464 39.4806 13.1464 39.1691C13.1464 38.868 13.0619 38.6541 12.8929 38.5274C12.7239 38.4007 12.4387 38.3373 12.0373 38.3373H11.1739V40.0642Z" fill="white"/>
<path d="M6.25657 42.8448C6.19848 42.8448 6.16943 42.8157 6.16943 42.7576V37.7431C6.16943 37.6851 6.19848 37.656 6.25657 37.656H6.88239C6.94048 37.656 6.96953 37.6851 6.96953 37.7431V42.7576C6.96953 42.8157 6.94048 42.8448 6.88239 42.8448H6.25657Z" fill="white"/>
<path d="M0.0871393 42.845C0.0290465 42.845 0 42.816 0 42.7579V37.7434C0 37.6853 0.0290465 37.6562 0.0871393 37.6562H3.00234C3.05516 37.6562 3.08156 37.6853 3.08156 37.7434V38.2821C3.08156 38.3402 3.05516 38.3692 3.00234 38.3692H0.800097V39.9456H2.70132C2.75413 39.9456 2.78054 39.9747 2.78054 40.0328V40.5556C2.78054 40.6084 2.75413 40.6348 2.70132 40.6348H0.800097V42.7579C0.800097 42.816 0.771051 42.845 0.712958 42.845H0.0871393Z" fill="white"/>
</svg>
