<svg width="18" height="13" viewBox="0 0 18 13" fill="none" xmlns="http://www.w3.org/2000/svg">
<path fill-rule="evenodd" clip-rule="evenodd" d="M8.78669 2.52244C11.2396 2.52255 13.5987 3.46563 15.3764 5.15676C15.5103 5.28733 15.7243 5.28568 15.8561 5.15307L17.1358 3.86083C17.2025 3.79358 17.2397 3.70247 17.2392 3.60768C17.2386 3.51289 17.2004 3.42222 17.1328 3.35575C12.4669 -1.11858 5.10578 -1.11858 0.439822 3.35575C0.372232 3.42218 0.333883 3.51281 0.33326 3.6076C0.332636 3.70239 0.369791 3.79353 0.436501 3.86083L1.71652 5.15307C1.84828 5.28588 2.06242 5.28753 2.1962 5.15676C3.97415 3.46552 6.33354 2.52244 8.78669 2.52244ZM8.78669 6.72665C10.1344 6.72657 11.434 7.22781 12.433 8.13297C12.5681 8.26144 12.781 8.25865 12.9127 8.1267L14.1909 6.83446C14.2582 6.76668 14.2955 6.67473 14.2946 6.57918C14.2936 6.48363 14.2544 6.39245 14.1857 6.32606C11.1436 3.49452 6.4324 3.49452 3.39024 6.32606C3.32153 6.39245 3.28232 6.48367 3.28142 6.57925C3.28052 6.67483 3.318 6.76678 3.38545 6.83446L4.66325 8.1267C4.79497 8.25865 5.00782 8.26144 5.14294 8.13297C6.14127 7.22841 7.43986 6.72721 8.78669 6.72665ZM11.3471 9.55534C11.349 9.65116 11.3114 9.74354 11.243 9.81067L9.03205 12.0433C8.96723 12.1089 8.87887 12.1458 8.78667 12.1458C8.69447 12.1458 8.60611 12.1089 8.5413 12.0433L6.32996 9.81067C6.26165 9.74349 6.22407 9.65108 6.22609 9.55527C6.22812 9.45945 6.26957 9.36871 6.34066 9.30448C7.75267 8.10947 9.82068 8.10947 11.2327 9.30448C11.3037 9.36876 11.3451 9.45953 11.3471 9.55534Z" fill="black"/>
</svg>
