<svg width="33" height="26" viewBox="0 0 33 26" fill="none" xmlns="http://www.w3.org/2000/svg">
<path opacity="0.45" fill-rule="evenodd" clip-rule="evenodd" d="M13.6049 0C6.60929 0 0.938232 5.67105 0.938232 12.6666C0.938232 19.6622 6.60928 25.3333 13.6049 25.3333H19.6049C26.6005 25.3333 32.2715 19.6622 32.2715 12.6666C32.2715 5.67105 26.6005 0 19.6049 0H13.6049ZM17.0395 14.2813H13.6114L14.5421 12.6692L16.1146 9.94522L17.4833 7.57442L18.4606 5.88147L18.4706 5.86407C18.4996 5.81384 18.5286 5.76359 18.5573 5.71318C18.5843 5.66578 18.6109 5.61833 18.6369 5.57039C18.6935 5.46597 18.7473 5.35876 18.7876 5.24652C18.8286 5.1326 18.8537 5.01904 18.8599 4.89772C18.8661 4.77847 18.8555 4.65492 18.8244 4.5395C18.7933 4.42414 18.7472 4.30877 18.6819 4.20858C18.6155 4.10652 18.5415 4.01317 18.4469 3.93701C18.3586 3.86599 18.32 3.84377 18.2866 3.82453L18.2812 3.82136L18.2758 3.81828C18.2425 3.79896 18.2041 3.77673 18.0983 3.73573C17.985 3.69188 17.8671 3.67443 17.7456 3.66792C17.6262 3.66146 17.5033 3.67925 17.3878 3.70999C17.2723 3.74074 17.16 3.79336 17.0598 3.85834C16.9579 3.92437 16.8721 4.00288 16.7939 4.09529C16.7169 4.18638 16.651 4.28657 16.5888 4.38779C16.5603 4.43427 16.5326 4.48111 16.505 4.52814C16.4755 4.5785 16.4463 4.62899 16.4172 4.67954L16.4076 4.69604L16.1146 5.20361L15.8216 4.69604L15.8121 4.67954C15.7829 4.62899 15.7537 4.5785 15.7242 4.52814C15.6967 4.48111 15.6689 4.43427 15.6404 4.38779C15.5783 4.28657 15.5123 4.18638 15.4353 4.09529C15.3571 4.00288 15.2714 3.92437 15.1694 3.85834C15.0692 3.79336 14.957 3.74074 14.8415 3.70999C14.726 3.67925 14.6031 3.66146 14.4836 3.66792C14.3621 3.67443 14.2442 3.69188 14.131 3.73573C14.025 3.77679 13.9867 3.79902 13.9533 3.81836L13.9481 3.82136L13.9426 3.82453C13.9092 3.84377 13.8707 3.86599 13.7824 3.93701C13.6878 4.01317 13.6137 4.10652 13.5473 4.20858C13.482 4.30877 13.436 4.42414 13.4048 4.5395C13.3737 4.65492 13.3632 4.77847 13.3693 4.89772C13.3755 5.01904 13.4006 5.1326 13.4416 5.24652C13.4819 5.35876 13.5357 5.46597 13.5923 5.57039C13.6183 5.61833 13.645 5.66578 13.6719 5.71318C13.7006 5.76359 13.7296 5.81384 13.7586 5.86407L13.7687 5.88147L14.746 7.57442L12.4892 11.4838L10.8742 14.2813H8.27294C8.21515 14.2813 8.15737 14.2814 8.09958 14.2817C8.04525 14.2821 7.99101 14.2827 7.93671 14.2841C7.81844 14.2873 7.69916 14.2943 7.58217 14.3154C7.46352 14.3368 7.35307 14.3717 7.24529 14.4268C7.13932 14.4809 7.03799 14.5516 6.95391 14.6359C6.86988 14.7202 6.79327 14.8174 6.73937 14.9237C6.68444 15.0318 6.64072 15.1422 6.62217 15.2617C6.60484 15.3736 6.6049 15.4179 6.60495 15.4563L6.60495 15.4623L6.60495 15.4684C6.6049 15.5068 6.60484 15.551 6.62217 15.6628C6.64072 15.7824 6.68444 15.8928 6.73937 16.0009C6.79327 16.1072 6.86988 16.2044 6.95391 16.2887C7.03799 16.373 7.13932 16.4437 7.24529 16.4978C7.35307 16.5529 7.46352 16.5878 7.58217 16.6092C7.69916 16.6303 7.81844 16.6372 7.93671 16.6404C7.99101 16.6419 8.04525 16.6425 8.09958 16.6428C8.15771 16.6432 8.21581 16.6432 8.27391 16.6432H9.51067H12.248H18.6572C18.9713 15.8391 18.6878 15.2263 18.4128 14.885C18.0754 14.4661 17.5983 14.2813 17.0395 14.2813ZM25.4706 14.9237C25.5255 15.0318 25.5692 15.1422 25.5878 15.2617C25.6051 15.3736 25.605 15.4179 25.605 15.4563L25.605 15.4624L25.605 15.4684C25.605 15.5068 25.6051 15.551 25.5878 15.6628C25.5692 15.7824 25.5255 15.8928 25.4706 16.0009C25.4166 16.1072 25.3401 16.2044 25.256 16.2887C25.1719 16.373 25.0706 16.4437 24.9647 16.4978C24.8569 16.5528 24.7464 16.5877 24.6278 16.6092C24.5108 16.6303 24.3915 16.6372 24.2732 16.6404C24.2189 16.6419 24.1647 16.6425 24.1104 16.6428C24.0522 16.6432 23.9941 16.6432 23.936 16.6432H22.7186L23.3132 17.6734L23.6718 18.2945C23.701 18.345 23.7301 18.3955 23.759 18.4462C23.786 18.4936 23.8126 18.5411 23.8386 18.589C23.8952 18.6935 23.949 18.8007 23.9894 18.9129C24.0303 19.0269 24.0554 19.1404 24.0616 19.2617C24.0677 19.381 24.0572 19.5045 24.0261 19.6199C23.995 19.7353 23.9489 19.8507 23.8836 19.9509C23.8172 20.0529 23.7431 20.1463 23.6485 20.2224C23.5601 20.2936 23.5216 20.3157 23.4882 20.335L23.4829 20.338L23.4775 20.3411C23.4442 20.3604 23.4057 20.3827 23.2999 20.4237C23.1867 20.4676 23.0688 20.485 22.9472 20.4915C22.8278 20.498 22.7049 20.4802 22.5894 20.4495C22.474 20.4187 22.3617 20.3661 22.2615 20.3011C22.1596 20.2351 22.0738 20.1566 21.9956 20.0641C21.9186 19.973 21.8526 19.8729 21.7905 19.7717C21.762 19.7252 21.7342 19.6783 21.7067 19.6313C21.6774 19.5812 21.6484 19.531 21.6193 19.4808L21.2603 18.8587L19.9813 16.6432L18.6178 14.2814L17.6871 12.6692L17.4085 12.1866C16.8952 11.2973 16.872 10.3811 17.0689 9.60229C17.2027 9.07286 17.527 8.5507 17.857 8.22187L19.7401 11.4838L21.3551 14.2814H23.937C23.9948 14.2814 24.0526 14.2814 24.1104 14.2817C24.1647 14.2821 24.2189 14.2827 24.2732 14.2841C24.3915 14.2873 24.5108 14.2943 24.6278 14.3154C24.7464 14.3368 24.8569 14.3717 24.9647 14.4268C25.0706 14.4809 25.1719 14.5516 25.256 14.6359C25.3401 14.7202 25.4166 14.8174 25.4706 14.9237ZM9.19356 17.1926C9.57993 17.1033 9.957 17.0811 10.2881 17.138C10.72 17.2122 11.2011 17.428 11.5234 17.8982L10.969 18.8587L10.6099 19.4807C10.5809 19.531 10.5519 19.5812 10.5226 19.6313C10.495 19.6783 10.4672 19.7252 10.4387 19.7716C10.3766 19.8729 10.3107 19.9731 10.2336 20.0641C10.1555 20.1565 10.0697 20.2351 9.96776 20.3011C9.86756 20.3661 9.75526 20.4187 9.63977 20.4495C9.5243 20.4802 9.40138 20.498 9.282 20.4915C9.16041 20.485 9.04253 20.4676 8.92931 20.4237C8.82364 20.3828 8.7851 20.3605 8.75176 20.3412L8.74629 20.338L8.74094 20.3349C8.70755 20.3157 8.66908 20.2935 8.5807 20.2224C8.48612 20.1463 8.41206 20.0529 8.34567 19.9509C8.28035 19.8507 8.23429 19.7353 8.20317 19.62C8.17204 19.5045 8.16149 19.381 8.16766 19.2617C8.17385 19.1404 8.19897 19.0269 8.23988 18.9129C8.28024 18.8006 8.33407 18.6934 8.39062 18.589C8.4166 18.5411 8.44329 18.4936 8.47024 18.4463C8.49911 18.3956 8.52824 18.345 8.55742 18.2945L8.91601 17.6733L9.19356 17.1926Z" fill="black"/>
</svg>
