<svg width="20" height="12" viewBox="0 0 20 12" fill="none" xmlns="http://www.w3.org/2000/svg">
<path fill-rule="evenodd" clip-rule="evenodd" d="M18.6154 0.0833435H17.5128C16.9039 0.0833435 16.4102 0.577696 16.4102 1.18751V10.757C16.4102 11.3668 16.9039 11.8611 17.5128 11.8611H18.6154C19.2243 11.8611 19.718 11.3668 19.718 10.757V1.18751C19.718 0.577696 19.2243 0.0833435 18.6154 0.0833435ZM12.3675 2.65973H13.4701C14.079 2.65973 14.5727 3.15408 14.5727 3.7639V10.757C14.5727 11.3668 14.079 11.8611 13.4701 11.8611H12.3675C11.7586 11.8611 11.265 11.3668 11.265 10.757V3.7639C11.265 3.15408 11.7586 2.65973 12.3675 2.65973ZM8.32478 5.23612H7.22222C6.61329 5.23612 6.11966 5.73047 6.11966 6.34029V10.757C6.11966 11.3668 6.61329 11.8611 7.22222 11.8611H8.32478C8.93371 11.8611 9.42734 11.3668 9.42734 10.757V6.34029C9.42734 5.73047 8.93371 5.23612 8.32478 5.23612ZM3.17948 7.44445H2.07692C1.468 7.44445 0.974365 7.93881 0.974365 8.54862V10.757C0.974365 11.3668 1.468 11.8611 2.07692 11.8611H3.17948C3.78841 11.8611 4.28204 11.3668 4.28204 10.757V8.54862C4.28204 7.93881 3.78841 7.44445 3.17948 7.44445Z" fill="black"/>
</svg>
