<svg width="292" height="190" viewBox="0 0 292 190" fill="none" xmlns="http://www.w3.org/2000/svg">
<path fill-rule="evenodd" clip-rule="evenodd" d="M292 24C292 15.5992 292 11.3988 290.365 8.19014C288.927 5.36771 286.632 3.073 283.81 1.6349C280.601 0 276.401 0 268 0H24C15.5992 0 11.3988 0 8.19012 1.6349C5.36771 3.073 3.073 5.36771 1.63489 8.19014C0 11.3988 0 15.5992 0 24V166C0 174.401 0 178.601 1.63489 181.81C3.073 184.632 5.36771 186.927 8.19012 188.365C11.3988 190 15.5992 190 24 190H268C276.401 190 280.601 190 283.81 188.365C286.632 186.927 288.927 184.632 290.365 181.81C292 178.601 292 174.401 292 166V24Z" fill="#E6E5EB"/>
</svg>
