<svg width="66" height="37" viewBox="0 0 66 37" fill="none" xmlns="http://www.w3.org/2000/svg">
<path fill-rule="evenodd" clip-rule="evenodd" d="M66 18.5C66 15.2478 66 13.6217 65.7488 12.2665C64.6171 6.16029 59.8397 1.38289 53.7335 0.251176C52.3783 0 50.7522 0 47.5 0H18.5C15.2478 0 13.6217 0 12.2665 0.251176C6.16029 1.38289 1.38289 6.16029 0.251175 12.2665C0 13.6217 0 15.2478 0 18.5C0 21.7522 0 23.3783 0.251175 24.7335C1.38289 30.8397 6.16029 35.6171 12.2665 36.7488C13.6217 37 15.2478 37 18.5 37H47.5C50.7522 37 52.3783 37 53.7335 36.7488C59.8397 35.6171 64.6171 30.8397 65.7488 24.7335C66 23.3783 66 21.7522 66 18.5Z" fill="#007AFF"/>
</svg>
