<svg width="292" height="134" viewBox="0 0 292 134" fill="none" xmlns="http://www.w3.org/2000/svg">
<path fill-rule="evenodd" clip-rule="evenodd" d="M292 24C292 15.5992 292 11.3988 290.365 8.19014C288.927 5.36771 286.632 3.073 283.81 1.6349C280.601 0 276.401 0 268 0H24C15.5992 0 11.3988 0 8.19012 1.6349C5.36771 3.073 3.073 5.36771 1.63489 8.19014C0 11.3988 0 15.5992 0 24V110C0 118.401 0 122.601 1.63489 125.81C3.073 128.632 5.36771 130.927 8.19012 132.365C11.3988 134 15.5992 134 24 134H268C276.401 134 280.601 134 283.81 132.365C286.632 130.927 288.927 128.632 290.365 125.81C292 122.601 292 118.401 292 110V24Z" fill="#E6E5EB"/>
</svg>
