<svg width="280" height="36" viewBox="0 0 280 36" fill="none" xmlns="http://www.w3.org/2000/svg">
<path fill-rule="evenodd" clip-rule="evenodd" d="M280 18C280 15.213 280 13.8195 279.815 12.6535C278.799 6.2351 273.765 1.20125 267.347 0.184675C266.181 0 264.787 0 262 0H18C15.213 0 13.8195 0 12.6535 0.184675C6.23511 1.20125 1.20123 6.2351 0.184662 12.6535C0 13.8195 0 15.213 0 18C0 20.787 0 22.1805 0.184662 23.3465C1.20123 29.7649 6.23511 34.7988 12.6535 35.8153C13.8195 36 15.213 36 18 36H262C264.787 36 266.181 36 267.347 35.8153C273.765 34.7988 278.799 29.7649 279.815 23.3465C280 22.1805 280 20.787 280 18Z" fill="#E6E5EB"/>
</svg>
