<svg width="292" height="150" viewBox="0 0 292 150" fill="none" xmlns="http://www.w3.org/2000/svg">
<path fill-rule="evenodd" clip-rule="evenodd" d="M292 24C292 15.5992 292 11.3988 290.365 8.19014C288.927 5.36771 286.632 3.073 283.81 1.6349C280.601 0 276.401 0 268 0H24C15.5992 0 11.3988 0 8.19012 1.6349C5.36771 3.073 3.073 5.36771 1.63489 8.19014C0 11.3988 0 15.5992 0 24V126C0 134.401 0 138.601 1.63489 141.81C3.073 144.632 5.36771 146.927 8.19012 148.365C11.3988 150 15.5992 150 24 150H268C276.401 150 280.601 150 283.81 148.365C286.632 146.927 288.927 144.632 290.365 141.81C292 138.601 292 134.401 292 126V24Z" fill="#E6E5EB"/>
</svg>
