<svg width="18" height="13" viewBox="0 0 18 13" fill="none" xmlns="http://www.w3.org/2000/svg">
<path fill-rule="evenodd" clip-rule="evenodd" d="M8.78681 2.60579C11.2397 2.60589 13.5988 3.54897 15.3766 5.24011C15.5104 5.37067 15.7244 5.36902 15.8562 5.23642L17.1359 3.94418C17.2026 3.87692 17.2399 3.78581 17.2393 3.69102C17.2388 3.59623 17.2005 3.50557 17.1329 3.4391C12.467 -1.03524 5.1059 -1.03524 0.439944 3.4391C0.372355 3.50552 0.334005 3.59615 0.333382 3.69095C0.332759 3.78574 0.369913 3.87687 0.436623 3.94418L1.71664 5.23642C1.8484 5.36922 2.06254 5.37087 2.19632 5.24011C3.97427 3.54886 6.33366 2.60578 8.78681 2.60579ZM8.78681 6.80999C10.1345 6.80991 11.4341 7.31115 12.4331 8.21632C12.5683 8.34478 12.7811 8.342 12.9128 8.21004L14.191 6.9178C14.2583 6.85002 14.2957 6.75807 14.2947 6.66252C14.2937 6.56697 14.2545 6.4758 14.1858 6.4094C11.1437 3.57787 6.43252 3.57787 3.39037 6.4094C3.32165 6.4758 3.28244 6.56702 3.28154 6.6626C3.28064 6.75818 3.31812 6.85012 3.38557 6.9178L4.66337 8.21004C4.79509 8.342 5.00794 8.34478 5.14306 8.21632C6.1414 7.31175 7.43998 6.81055 8.78681 6.80999ZM11.3472 9.63869C11.3491 9.73451 11.3115 9.82689 11.2431 9.89401L9.03217 12.1266C8.96736 12.1923 8.87899 12.2292 8.78679 12.2292C8.69459 12.2292 8.60623 12.1923 8.54142 12.1266L6.33008 9.89401C6.26177 9.82683 6.22419 9.73443 6.22621 9.63861C6.22824 9.54279 6.26969 9.45205 6.34078 9.38783C7.75279 8.19282 9.8208 8.19282 11.2328 9.38783C11.3038 9.45211 11.3452 9.54287 11.3472 9.63869Z" fill="black"/>
</svg>
