<svg width="20" height="12" viewBox="0 0 20 12" fill="none" xmlns="http://www.w3.org/2000/svg">
<path fill-rule="evenodd" clip-rule="evenodd" d="M18.6154 0H17.5128C16.9039 0 16.4102 0.494352 16.4102 1.10417V10.6736C16.4102 11.2834 16.9039 11.7778 17.5128 11.7778H18.6154C19.2243 11.7778 19.718 11.2834 19.718 10.6736V1.10417C19.718 0.494352 19.2243 0 18.6154 0ZM12.3675 2.57639H13.4701C14.079 2.57639 14.5727 3.07074 14.5727 3.68055V10.6736C14.5727 11.2834 14.079 11.7778 13.4701 11.7778H12.3675C11.7586 11.7778 11.265 11.2834 11.265 10.6736V3.68055C11.265 3.07074 11.7586 2.57639 12.3675 2.57639ZM8.32478 5.15278H7.22222C6.61329 5.15278 6.11966 5.64713 6.11966 6.25694V10.6736C6.11966 11.2834 6.61329 11.7778 7.22222 11.7778H8.32478C8.93371 11.7778 9.42734 11.2834 9.42734 10.6736V6.25694C9.42734 5.64713 8.93371 5.15278 8.32478 5.15278ZM3.17948 7.36111H2.07692C1.468 7.36111 0.974365 7.85546 0.974365 8.46528V10.6736C0.974365 11.2834 1.468 11.7778 2.07692 11.7778H3.17948C3.78841 11.7778 4.28204 11.2834 4.28204 10.6736V8.46528C4.28204 7.85546 3.78841 7.36111 3.17948 7.36111Z" fill="black"/>
</svg>
