<svg width="18" height="13" viewBox="0 0 18 13" fill="none" xmlns="http://www.w3.org/2000/svg">
<path fill-rule="evenodd" clip-rule="evenodd" d="M8.78678 2.52244C11.2397 2.52255 13.5988 3.46563 15.3765 5.15676C15.5104 5.28733 15.7244 5.28568 15.8562 5.15307L17.1359 3.86083C17.2026 3.79358 17.2398 3.70247 17.2393 3.60768C17.2387 3.51289 17.2004 3.42222 17.1329 3.35575C12.467 -1.11858 5.10587 -1.11858 0.439914 3.35575C0.372324 3.42218 0.333974 3.51281 0.333351 3.6076C0.332728 3.70239 0.369882 3.79353 0.436593 3.86083L1.71661 5.15307C1.84837 5.28588 2.06251 5.28753 2.19629 5.15676C3.97424 3.46552 6.33363 2.52244 8.78678 2.52244ZM8.78678 6.72665C10.1345 6.72657 11.4341 7.22781 12.4331 8.13297C12.5682 8.26144 12.7811 8.25865 12.9128 8.1267L14.191 6.83446C14.2583 6.76668 14.2956 6.67473 14.2947 6.57918C14.2937 6.48363 14.2545 6.39245 14.1858 6.32606C11.1437 3.49452 6.43249 3.49452 3.39034 6.32606C3.32162 6.39245 3.28241 6.48367 3.28151 6.57925C3.28061 6.67483 3.31809 6.76678 3.38554 6.83446L4.66334 8.1267C4.79506 8.25865 5.00791 8.26144 5.14303 8.13297C6.14137 7.22841 7.43995 6.72721 8.78678 6.72665ZM11.3472 9.55534C11.3491 9.65116 11.3115 9.74354 11.2431 9.81067L9.03214 12.0433C8.96733 12.1089 8.87896 12.1458 8.78676 12.1458C8.69456 12.1458 8.6062 12.1089 8.54139 12.0433L6.33005 9.81067C6.26174 9.74349 6.22416 9.65108 6.22618 9.55527C6.22821 9.45945 6.26966 9.36871 6.34075 9.30448C7.75276 8.10947 9.82077 8.10947 11.2328 9.30448C11.3038 9.36876 11.3452 9.45953 11.3472 9.55534Z" fill="black"/>
</svg>
